<?xml version="1.0" standalone="no"?><!DOCTYPE svg PUBLIC "-//W3C//DTD SVG 1.1//EN" "http://www.w3.org/Graphics/SVG/1.1/DTD/svg11.dtd"><svg t="1730986016779" class="icon" viewBox="0 0 1024 1024" version="1.1" xmlns="http://www.w3.org/2000/svg" p-id="13178" xmlns:xlink="http://www.w3.org/1999/xlink" width="200" height="200"><path d="M856 548H588a40 40 0 0 0-40 40v268a40 40 0 0 0 40 40h268a40 40 0 0 0 40-40V588a40 40 0 0 0-40-40z m-420 0H168a40 40 0 0 0-40 40v268a40 40 0 0 0 40 40h268a40 40 0 0 0 40-40V588a40 40 0 0 0-40-40z m0-420H168a40 40 0 0 0-40 40v268a40 40 0 0 0 40 40h268a40 40 0 0 0 40-40V168a40 40 0 0 0-40-40z m420 0H576a40 40 0 0 0-40 40v280a40 40 0 0 0 40 40h280a40 40 0 0 0 40-40V168a40 40 0 0 0-40-40z m-32 288H608V200h216z" p-id="13179" fill="#ffffff"></path></svg>