<?xml version="1.0" standalone="no"?><!DOCTYPE svg PUBLIC "-//W3C//DTD SVG 1.1//EN" "http://www.w3.org/Graphics/SVG/1.1/DTD/svg11.dtd"><svg t="1730986486408" class="icon" viewBox="0 0 1024 1024" version="1.1" xmlns="http://www.w3.org/2000/svg" p-id="28588" xmlns:xlink="http://www.w3.org/1999/xlink" width="200" height="200"><path d="M512 42.666667c258.986667 0 469.333333 210.346667 469.333333 469.333333s-210.346667 469.333333-469.333333 469.333333S42.666667 770.986667 42.666667 512 253.013333 42.666667 512 42.666667z m0 104.277333c-201.472 0-365.056 163.584-365.056 365.056 0 201.472 163.584 365.056 365.056 365.056 201.472 0 365.056-163.584 365.056-365.056 0-201.472-163.584-365.056-365.056-365.056z" fill="#ffffff" fill-opacity=".9" p-id="28589"></path><path d="M503.466667 42.666667c254.293333 0 460.8 206.506667 460.8 460.8 0 254.293333-206.506667 460.8-460.8 460.8C249.173333 964.266667 42.666667 757.76 42.666667 503.466667 42.666667 249.173333 249.173333 42.666667 503.466667 42.666667zM554.666667 522.581333V290.133333a25.6 25.6 0 0 0-25.6-25.6h-51.2a25.6 25.6 0 0 0-25.6 25.6v256a51.072 51.072 0 0 0 15.701333 36.906667l2.133333 1.962667 159.786667 136.96a25.6 25.6 0 0 0 36.096-2.816l33.365333-38.826667a25.728 25.728 0 0 0-2.816-36.096L554.666667 522.581333z" fill="#ffffff" fill-opacity=".6" p-id="28590"></path></svg>