<?xml version="1.0" standalone="no"?><!DOCTYPE svg PUBLIC "-//W3C//DTD SVG 1.1//EN" "http://www.w3.org/Graphics/SVG/1.1/DTD/svg11.dtd"><svg t="1730987137712" class="icon" viewBox="0 0 1024 1024" version="1.1" xmlns="http://www.w3.org/2000/svg" p-id="68216" xmlns:xlink="http://www.w3.org/1999/xlink" width="200" height="200"><path d="M234.666667 448m21.333333 0l128 0q21.333333 0 21.333333 21.333333l0 85.333334q0 21.333333-21.333333 21.333333l-128 0q-21.333333 0-21.333333-21.333333l0-85.333334q0-21.333333 21.333333-21.333333Z" fill="#ffffff" p-id="68217"></path><path d="M661.333333 256m21.333334 0l128 0q21.333333 0 21.333333 21.333333l0 85.333334q0 21.333333-21.333333 21.333333l-128 0q-21.333333 0-21.333334-21.333333l0-85.333334q0-21.333333 21.333334-21.333333Z" fill="#ffffff" p-id="68218"></path><path d="M149.333333 256m21.333334 0l384 0q21.333333 0 21.333333 21.333333l0 85.333334q0 21.333333-21.333333 21.333333l-384 0q-21.333333 0-21.333334-21.333333l0-85.333334q0-21.333333 21.333334-21.333333Z" fill="#dbdbdb" p-id="68219"></path><path d="M192 640m21.333333 0l597.333334 0q21.333333 0 21.333333 21.333333l0 85.333334q0 21.333333-21.333333 21.333333l-597.333334 0q-21.333333 0-21.333333-21.333333l0-85.333334q0-21.333333 21.333333-21.333333Z" fill="#ffffff" p-id="68220"></path><path d="M490.666667 448m21.333333 0l341.333333 0q21.333333 0 21.333334 21.333333l0 85.333334q0 21.333333-21.333334 21.333333l-341.333333 0q-21.333333 0-21.333333-21.333333l0-85.333334q0-21.333333 21.333333-21.333333Z" fill="#ffffff" p-id="68221"></path></svg>