<?xml version="1.0" standalone="no"?><!DOCTYPE svg PUBLIC "-//W3C//DTD SVG 1.1//EN" "http://www.w3.org/Graphics/SVG/1.1/DTD/svg11.dtd"><svg t="1730986578905" class="icon" viewBox="0 0 1035 1024" version="1.1" xmlns="http://www.w3.org/2000/svg" p-id="34123" xmlns:xlink="http://www.w3.org/1999/xlink" width="202.1484375" height="200"><path d="M41.0208 397.056l76.8 44.8 352 198.4c32 19.2 70.4 19.2 96 0l345.6-198.4 76.8-44.8c32-19.2 44.8-57.6 25.6-89.6-6.4-12.8-12.8-19.2-25.6-25.6l-428.8-243.2c-32-19.2-70.4-19.2-96 0l-428.8 243.2c-32 19.2-44.8 57.6-25.6 89.6 12.8 12.8 19.2 19.2 32 25.6z" fill="#ffffff" p-id="34124"></path><path d="M994.6208 627.456l-76.8-44.8-345.6 198.4c-32 19.2-70.4 19.2-96 0l-352-198.4-76.8 44.8c-32 19.2-44.8 57.6-25.6 89.6 6.4 12.8 12.8 19.2 25.6 25.6l428.8 243.2c32 19.2 70.4 19.2 96 0l428.8-243.2c32-19.2 44.8-57.6 25.6-89.6-12.8-12.8-19.2-19.2-32-25.6z" fill="#ffffff" p-id="34125"></path></svg>