<?xml version="1.0" standalone="no"?><!DOCTYPE svg PUBLIC "-//W3C//DTD SVG 1.1//EN" "http://www.w3.org/Graphics/SVG/1.1/DTD/svg11.dtd"><svg t="1707730706609" class="icon" viewBox="0 0 1024 1024" version="1.1" xmlns="http://www.w3.org/2000/svg" p-id="1539" xmlns:xlink="http://www.w3.org/1999/xlink" width="200" height="200"><path d="M768 170.667l85.333 128h-128l-85.333-128h-85.333l85.333 128H512l-85.333-128h-85.334l85.334 128h-128l-85.334-128h-42.666c-46.934 0-84.907 38.4-84.907 85.333l-0.427 512c0 46.933 38.4 85.333 85.334 85.333h682.666c46.934 0 85.334-38.4 85.334-85.333V170.667H768z m-288 480L426.667 768l-53.334-117.333L256 597.333 373.333 544l53.334-117.333L480 544l117.333 53.333L480 650.667zM722.773 509.44l-40.106 87.893-40.107-87.893-87.893-40.107 87.893-40.106 40.107-87.894 40.106 87.894 87.894 40.106-87.894 40.107z" p-id="1540" fill="#ffffff"></path></svg>