<?xml version="1.0" standalone="no"?><!DOCTYPE svg PUBLIC "-//W3C//DTD SVG 1.1//EN" "http://www.w3.org/Graphics/SVG/1.1/DTD/svg11.dtd"><svg id="ArchiveIcon" t="1731585290882" class="icon" viewBox="0 0 1024 1024" version="1.1" xmlns="http://www.w3.org/2000/svg" p-id="8209" xmlns:xlink="http://www.w3.org/1999/xlink" style="/*position:absolute;left:30%;right:30%;margin: auto;*/height: 25px;margin-right:5%;"><path d="M863.2 315.9c-0.2-1.4-0.4-2.7-0.8-4.1-1.5-5.5-3.9-10.6-7.8-14.5l-128-128c-6-6-14.1-9.4-22.6-9.4L320 159.9c-8.5 0-16.6 3.4-22.6 9.4l-128 128c-3.9 3.9-6.3 9-7.8 14.5-0.4 1.4-0.6 2.7-0.8 4.1-0.2 1.4-0.8 2.6-0.8 4.1l0 451.8c0 50.9 41.4 92.2 92.2 92.2l519.6 0c50.8 0 92.2-41.4 92.2-92.2L864 320C864 318.6 863.4 317.3 863.2 315.9zM611.4 649.8l-76.8 76.8c-6.2 6.2-14.4 9.4-22.6 9.4s-16.4-3.1-22.6-9.4l-76.8-76.8c-12.5-12.5-12.5-32.8 0-45.2s32.8-12.5 45.2 0l22.2 22.2L480 448c0-17.7 14.3-32 32-32 17.7 0 32 14.3 32 32l0 178.8 22.2-22.2c12.5-12.5 32.8-12.5 45.2 0S623.9 637.3 611.4 649.8zM269.2 288l64-64 357.5 0 64 64L269.2 288z" fill="#272636" p-id="8210" transform="scale(1.2) translate(-85 -85)"></path></svg>