<svg id="ArchiveIcon" t="1662924184790" class="icon" viewBox="0 0 1024 1024" version="1.1" xmlns="http://www.w3.org/2000/svg" p-id="10165" style="/*position:absolute;left:30%;right:30%;margin: auto;height: 50%;*/height: 25px;margin-right:5%;">
<path d="M714.965333 85.333333a128 128 0 0 1 90.538667 37.504l108.074667 108.074667c16.085333 16.085333 25.088 37.845333 25.088 60.586667l-0.170667 3.2L938.666667 298.666667v512a128 128 0 0 1-128 128H213.333333a128 128 0 0 1-128-128V298.666667c0-1.322667 0.042667-2.645333 0.170667-3.968L85.333333 291.456c0-22.698667 9.002667-44.458667 25.088-60.544L218.453333 122.88A128 128 0 0 1 309.034667 85.333333h405.930666zM874.666667 320h-725.333334V810.666667A64 64 0 0 0 213.333333 874.666667h597.333334a64 64 0 0 0 64-64V320z m-362.581334 117.333333a32 32 0 0 1 31.701334 27.648l0.298666 4.352v200.106667l51.968-51.968a32 32 0 0 1 48.341334 41.642667l-3.114667 3.584-76.373333 76.416a74.666667 74.666667 0 0 1-100.266667 4.864l-5.376-4.864-76.544-76.586667a32 32 0 0 1 41.642667-48.341333l3.584 3.114666 52.138666 52.096V469.333333a32 32 0 0 1 32-32z m202.88-288H309.034667a64 64 0 0 0-40.576 14.506667l-4.693334 4.266667L175.872 256h672.298667l-87.936-87.893333a64 64 0 0 0-45.226667-18.773334z" fill="#ffffff" p-id="10166">
</path></svg>