<?xml version="1.0" standalone="no"?><!DOCTYPE svg PUBLIC "-//W3C//DTD SVG 1.1//EN" "http://www.w3.org/Graphics/SVG/1.1/DTD/svg11.dtd"><svg t="1738241707247" class="icon" viewBox="0 0 1024 1024" version="1.1" xmlns="http://www.w3.org/2000/svg" p-id="11499" xmlns:xlink="http://www.w3.org/1999/xlink" width="200" height="200"><path d="M807.232 682.624c40 0 72.448-32.384 72.448-72.448 0-26.624-24.128-83.008-72.448-169.024-48.32 86.016-72.448 142.4-72.448 169.024 0 40.064 32.448 72.448 72.448 72.448z" fill="#fff" p-id="11500"></path><path d="M512 121.792l248.96 248.896a64 64 0 0 1 0 90.496L512 710.144a64 64 0 0 1-90.496 0l-248.96-248.96a64 64 0 0 1 0-90.496l230.848-230.784-13.568-13.568a44.8 44.8 0 1 1 63.36-63.36L512 121.792zM254.08 415.936l212.672 212.672L679.424 416 466.752 203.264 254.016 415.936z" fill="#fff" p-id="11501"></path><path d="M724.352 416.448L452.864 688 181.312 416.448z" fill="#fff" p-id="11502"></path></svg>