<?xml version="1.0" standalone="no"?><!DOCTYPE svg PUBLIC "-//W3C//DTD SVG 1.1//EN" "http://www.w3.org/Graphics/SVG/1.1/DTD/svg11.dtd"><svg t="1682142618216" class="icon" viewBox="0 0 1024 1024" version="1.1" xmlns="http://www.w3.org/2000/svg" p-id="820" xmlns:xlink="http://www.w3.org/1999/xlink" width="200" height="200"><path d="M228.115268 615.399298a12.300795 12.300795 0 0 0 11.35458 7.569719 12.471113 12.471113 0 0 0 4.749999-0.965139l147.609537-61.882459a12.300795 12.300795 0 0 0 0.26494-22.557765l-147.609537-66.235049a12.300795 12.300795 0 1 0-10.067727 22.444219l121.740019 54.634453-121.456155 50.906366a12.300795 12.300795 0 0 0-6.585656 16.085655zM399.020617 627.965033H239.469848a12.300795 12.300795 0 0 0 0 24.601589h159.550769a12.300795 12.300795 0 0 0 0-24.601589zM399.020617 667.460046H239.469848a12.300795 12.300795 0 0 0 0 24.601589h159.550769a12.300795 12.300795 0 0 0 0-24.601589zM872.941851 476.892349l-133.283841 58.381464a12.300795 12.300795 0 0 0-0.397411 22.349598l133.302766 64.058754a12.073703 12.073703 0 0 0 5.317729 1.23008 12.300795 12.300795 0 0 0 5.336652-23.390435l-109.15536-52.42031L882.896033 499.469038a12.300795 12.300795 0 1 0-9.954182-22.576689zM877.881094 627.965033h-148.101569a12.300795 12.300795 0 0 0 0 24.601589h148.101569a12.300795 12.300795 0 0 0 0-24.601589zM877.881094 667.460046h-148.101569a12.300795 12.300795 0 0 0 0 24.601589h148.101569a12.300795 12.300795 0 0 0 0-24.601589zM644.866193 537.128395h-162.919295a12.28187 12.28187 0 0 0-10.711153 18.318722l81.374488 145.130453a12.300795 12.300795 0 0 0 21.460155 0l81.374489-145.130453a12.300795 12.300795 0 0 0-10.730078-18.318722z m-81.374488 132.299778l-60.444213-107.698189h120.888426z" fill="#F9389E" p-id="821"></path><path d="M891.411968 334.960102H648.405037c-6.812748-15.13944-19.813742-28.386449-36.864535-38.018917L803.092262 19.283861a12.300795 12.300795 0 0 0-20.249001-13.966133L588.566402 286.873457a147.723082 147.723082 0 0 0-45.418319-7.001991 151.507942 151.507942 0 0 0-31.887445 3.368526L239.980804 4.712151A12.300795 12.300795 0 0 0 222.437978 21.87649l262.726051 269.803739c-22.14143 9.821711-39.116527 25.112546-47.310749 43.242025H132.547555A91.763929 91.763929 0 0 0 40.764702 426.705107v414.44216A91.763929 91.763929 0 0 0 132.547555 932.967969h268.024855l-19.908363 46.989036c-12.641432 29.881469 22.614538 57.094612 48.294812 37.299794L538.473781 932.967969h352.938187a91.763929 91.763929 0 0 0 91.782853-91.782853v-414.442161a91.763929 91.763929 0 0 0-91.782853-91.782853z m34.839635 463.815658a60.709153 60.709153 0 0 1-60.709153 60.709153H585.670984L487.870204 932.967969l-77.002975 57.851583 24.412346-57.851583 31.016927-73.483056H198.082405A60.728077 60.728077 0 0 1 137.27863 798.737912V440.330602a60.728077 60.728077 0 0 1 60.728077-60.728077h667.460046a60.709153 60.709153 0 0 1 60.709153 60.728077z" fill="#F9389E" p-id="822"></path></svg>