<?xml version="1.0" standalone="no"?><!DOCTYPE svg PUBLIC "-//W3C//DTD SVG 1.1//EN" "http://www.w3.org/Graphics/SVG/1.1/DTD/svg11.dtd"><svg t="1682142626658" class="icon" viewBox="0 0 1024 1024" version="1.1" xmlns="http://www.w3.org/2000/svg" p-id="976" xmlns:xlink="http://www.w3.org/1999/xlink" width="200" height="200"><path d="M216.926316 8.757895l-7.410527 7.410526 135.141053 135.141053C418.896842 225.549474 479.663158 286.72 479.663158 287.258947c0 0.538947-4.042105 3.098947-9.027369 5.793685-12.530526 6.602105-25.330526 16.303158-35.84 27.486315l-8.892631 9.431579-164.109474 0.404211c-182.568421 0.538947-168.421053-0.269474-186.88 9.566316-17.381053 9.296842-32.471579 30.315789-35.705263 50.391579-1.212632 6.602105-1.482105 74.105263-1.212632 248.993684 0.404211 229.726316 0.538947 240.101053 2.964211 247.242105 1.347368 4.042105 4.042105 10.374737 5.928421 14.147368 4.176842 8.488421 20.345263 24.522105 29.372632 29.237895 15.090526 8.084211 8.892632 7.814737 172.328421 7.814737 82.458947 0 150.096842 0.404211 150.501052 0.808421 0.404211 0.404211-3.368421 10.778947-8.353684 23.174737-5.12 12.395789-9.566316 24.656842-10.105263 27.351579-2.021053 10.644211 5.254737 23.444211 16.168421 28.294737 5.928421 2.694737 16.033684 3.368421 21.423158 1.212631 1.886316-0.673684 27.216842-19.132632 56.454737-41.094737l53.086316-39.747368h198.602105c217.330526 0 206.012632 0.404211 221.372631-7.814737 9.027368-4.715789 25.195789-20.749474 29.372632-29.237895 1.886316-3.772632 4.581053-10.105263 5.928421-14.147368 2.425263-7.141053 2.56-17.650526 2.964211-247.242105 0.269474-175.023158 0-242.256842-1.212632-248.993684-3.233684-20.075789-18.324211-41.094737-35.705263-50.391579-18.324211-9.701053-7.545263-9.027368-160.067369-9.566316l-137.296842-0.404211-8.218947-8.892631c-7.410526-8.084211-26.408421-23.578947-30.72-24.926316-1.751579-0.673684 10.24-16.707368 156.833684-210.997895C799.124211 46.08 823.242105 13.877895 823.242105 13.473684c-0.134737-0.404211-3.637895-3.233684-7.949473-6.467368-6.063158-4.311579-9.162105-5.658947-13.204211-5.658948-5.12 0-5.254737 0.134737-22.231579 22.501053-9.296842 12.530526-56.185263 74.778947-104.151579 138.509474-47.966316 63.730526-88.252632 116.951579-89.465263 118.16421-2.021053 2.155789-2.694737 2.155789-11.317895-0.269473-15.629474-4.446316-34.088421-5.928421-49.717894-4.042106l-13.608422 1.616842-138.24-138.24C235.654737 1.886316 235.115789 1.347368 229.726316 1.347368c-4.850526 0-6.332632 0.808421-12.8 7.410527z m693.490526 370.122105c10.509474 3.907368 21.827368 15.090526 25.734737 25.465263 2.694737 7.545263 2.829474 8.218947 3.098947 210.189474l0.134737 202.64421-2.829474 7.545264c-3.503158 9.162105-11.587368 18.863158-19.941052 23.713684-12.395789 7.275789-9.296842 7.141053-173.406316 7.141052h-152.252632l-55.242105 41.633685c-30.450526 22.770526-71.141053 53.490526-90.408421 68.042105-19.267368 14.551579-35.166316 25.734737-35.435789 25.061052-0.404211-1.077895 42.037895-105.903158 51.738947-127.595789l3.098947-7.141053-151.848421-0.269473c-117.625263-0.404211-152.926316-0.808421-156.833684-2.15579-13.069474-4.446316-26.273684-17.92-30.046316-30.450526-1.751579-5.793684-2.021053-33.818947-2.021052-207.764211 0-199.006316 0-201.296842 2.694737-208.572631 5.12-13.473684 15.090526-23.713684 28.025263-28.429474 4.176842-1.482105 65.077895-1.886316 376.454737-1.886316l371.469473-0.134737 7.814737 2.964211z" fill="#F93292" p-id="977"></path><path d="M221.103158 444.901053c-13.877895 22.231579-12.395789 30.046316 7.68 40.016842 15.36 7.68 130.290526 54.029474 161.010526 64.943158 2.694737 0.943158 4.985263 2.155789 4.985263 2.694736 0 0.404211-2.829474 1.886316-6.332631 3.233685-21.827368 8.218947-179.2 71.275789-180.143158 72.08421-1.212632 1.212632 4.446316 16.707368 8.757895 23.713684 5.12 8.353684 13.743158 9.431579 29.642105 3.772632 34.357895-12.395789 182.568421-83.671579 189.709474-91.351579 2.425263-2.56 3.233684-5.389474 3.772631-11.856842l0.673684-8.488421-106.037894-53.894737c-58.206316-29.642105-106.307368-54.029474-106.846316-54.16421-0.538947-0.134737-3.637895 4.042105-6.871579 9.296842zM827.284211 455.949474c-21.962105 11.183158-68.850526 35.166316-104.421053 53.221052-35.570526 18.054737-65.482105 33.414737-66.290526 34.223158-2.155789 1.616842-2.290526 7.949474-0.269474 14.821053 1.886316 7.006316 7.68 10.509474 61.170526 36.783158 75.317895 36.917895 124.227368 59.014737 139.856842 63.056842 8.488421 2.290526 15.225263 1.212632 18.997895-3.098948 2.425263-2.56 11.587368-23.444211 11.587368-26.138947 0-0.943158-5.928421-3.907368-13.20421-6.736842C824.050526 602.273684 700.631579 552.96 700.631579 552.421053c0-0.404211 11.048421-4.850526 24.656842-9.970527 66.829474-25.465263 138.374737-54.837895 149.827368-61.574737 7.814737-4.581053 10.509474-12.395789 7.410527-21.018947-1.886316-4.850526-13.743158-24.656842-14.686316-24.522105-0.538947 0.134737-18.728421 9.431579-40.555789 20.614737zM505.667368 676.917895c-7.141053 2.290526-17.785263 10.105263-22.770526 16.572631-2.021053 2.694737-6.602105 9.970526-9.970526 16.033685l-6.197895 11.183157-7.410526-6.063157c-18.054737-14.955789-34.627368-18.458947-50.391579-10.778948-14.282105 7.006316-31.797895 28.294737-28.16 34.088421 2.964211 4.715789 6.871579 3.772632 9.970526-2.425263 4.176842-8.084211 14.416842-18.458947 21.827369-22.231579 13.338947-6.736842 28.294737-2.425263 44.732631 12.934737 11.587368 10.913684 12.530526 10.509474 22.366316-8.084211 8.084211-15.494737 16.572632-25.734737 24.791579-29.911579 7.275789-3.907368 23.444211-4.176842 30.450526-0.538947 7.275789 3.772632 14.551579 11.317895 20.614737 21.692632 10.913684 18.593684 14.821053 19.671579 26.273684 7.141052 18.863158-20.749474 25.465263-25.330526 36.378948-25.330526 14.147368 0 24.252632 6.602105 39.747368 25.869474 4.311579 5.389474 5.928421 6.467368 9.566316 6.467368 2.56 0 6.332632-1.347368 9.027368-3.368421 12.665263-9.162105 18.863158-7.006316 33.549474 11.452632 3.907368 4.850526 7.814737 9.296842 8.892631 9.835789 2.694737 1.482105 5.928421-1.212632 5.928422-4.985263 0-3.907368-14.686316-21.153684-22.501053-26.677895-5.524211-3.772632-7.68-4.446316-14.551579-4.446316-7.275789 0-8.892632 0.538947-13.877895 4.581053-3.233684 2.425263-5.928421 4.311579-6.197895 4.042105-14.282105-20.48-26.004211-29.372632-42.172631-32.067368-16.707368-2.694737-28.025263 2.694737-44.867369 21.288421-5.389474 5.928421-10.374737 10.509474-10.913684 10.24-0.538947-0.404211-3.098947-4.446316-5.658947-9.162105-11.183158-19.941053-23.04-28.16-41.903158-28.833685-6.736842-0.269474-13.069474 0.269474-16.572632 1.482106z" fill="#F93292" p-id="978"></path></svg>