<?xml version="1.0" standalone="no"?><!DOCTYPE svg PUBLIC "-//W3C//DTD SVG 1.1//EN" "http://www.w3.org/Graphics/SVG/1.1/DTD/svg11.dtd"><svg t="1738241685098" class="icon" viewBox="0 0 1024 1024" version="1.1" xmlns="http://www.w3.org/2000/svg" p-id="10436" xmlns:xlink="http://www.w3.org/1999/xlink" width="200" height="200"><path d="M0 0m192 0l640 0q192 0 192 192l0 640q0 192-192 192l-640 0q-192 0-192-192l0-640q0-192 192-192Z" fill="#00000000" p-id="10437"></path><path d="M192 128a64 64 0 0 0-64 64v640a64 64 0 0 0 64 64h640a64 64 0 0 0 64-64v-640a64 64 0 0 0-64-64h-640m0-128h640a192 192 0 0 1 192 192v640a192 192 0 0 1-192 192h-640a192 192 0 0 1-192-192v-640a192 192 0 0 1 192-192z" fill="#fff" p-id="10438"></path><path d="M444.088446 217.866606m45.254834 45.254834l0 0q45.254834 45.254834 0 90.509668l-135.764502 135.764502q-45.254834 45.254834-90.509668 0l0 0q-45.254834-45.254834 0-90.509668l135.764502-135.764502q45.254834-45.254834 90.509668 0Z" fill="#fff" p-id="10439"></path><path d="M715.652456 489.357091m45.254834 45.254834l0 0q45.254834 45.254834 0 90.509668l-135.764502 135.764502q-45.254834 45.254834-90.509668 0l0 0q-45.254834-45.254834 0-90.509668l135.764502-135.764502q45.254834-45.254834 90.509668 0Z" fill="#fff" p-id="10440"></path><path d="M670.389371 263.143845m45.254834 45.254834l0 0q45.254834 45.254834 0 90.509668l-316.783838 316.783838q-45.254834 45.254834-90.509668 0l0 0q-45.254834-45.254834 0-90.509668l316.783838-316.783838q45.254834-45.254834 90.509668 0Z" fill="#fff" p-id="10441"></path></svg>