<?xml version="1.0" standalone="no"?><!DOCTYPE svg PUBLIC "-//W3C//DTD SVG 1.1//EN" "http://www.w3.org/Graphics/SVG/1.1/DTD/svg11.dtd"><svg t="1738241723212" class="icon" viewBox="0 0 1024 1024" version="1.1" xmlns="http://www.w3.org/2000/svg" p-id="12545" xmlns:xlink="http://www.w3.org/1999/xlink" width="200" height="200"><path d="M451.776 150.4a60.288 60.288 0 1 0 120.512 0 60.288 60.288 0 0 0-120.512 0z m59.648 556.48a195.008 195.008 0 1 0 0-389.952 195.008 195.008 0 0 0 0 389.952z m0.64 227.008a60.288 60.288 0 1 1 0-120.512 60.288 60.288 0 0 1 0 120.512z m361.536-482.176a60.288 60.288 0 1 1 0 120.576 60.288 60.288 0 0 1 0-120.576zM210.688 512a60.288 60.288 0 1 0-120.512 0 60.288 60.288 0 0 0 120.512 0z m599.68 213.12a60.288 60.288 0 1 1-85.248 85.184 60.288 60.288 0 0 1 85.248-85.248zM298.88 298.88a60.288 60.288 0 1 0-85.248-85.248 60.288 60.288 0 0 0 85.248 85.248z m426.24-85.248a60.288 60.288 0 1 1 85.248 85.248 60.288 60.288 0 0 1-85.248-85.248z m-426.176 511.36a60.288 60.288 0 1 0-85.184 85.248 60.288 60.288 0 0 0 85.184-85.248z" fill="#fff" p-id="12546"></path></svg>