<?xml version="1.0" standalone="no"?><!DOCTYPE svg PUBLIC "-//W3C//DTD SVG 1.1//EN" "http://www.w3.org/Graphics/SVG/1.1/DTD/svg11.dtd"><svg t="1731855654119" class="icon" viewBox="0 0 1024 1024" version="1.1" xmlns="http://www.w3.org/2000/svg" p-id="14897" xmlns:xlink="http://www.w3.org/1999/xlink" width="200" height="200"><path d="M640 192H384V96H320V192H192a64 64 0 0 0-64 64v576a64 64 0 0 0 64 64h640a64 64 0 0 0 64-64V256a64 64 0 0 0-64-64h-128V96h-64V192zM320 320h64V256h256v64h64V256h128v128H192V256h128v64zM192 448h640v384H192V448z" fill="#ffffff" fill-opacity=".9" p-id="14898"></path></svg>