<?xml version="1.0" standalone="no"?><!DOCTYPE svg PUBLIC "-//W3C//DTD SVG 1.1//EN" "http://www.w3.org/Graphics/SVG/1.1/DTD/svg11.dtd"><svg t="1738860476405" class="icon" viewBox="0 0 1024 1024" version="1.1" xmlns="http://www.w3.org/2000/svg" p-id="28149" xmlns:xlink="http://www.w3.org/1999/xlink" width="200" height="200"><path d="M137.948 380.97c13.32 30.81 74.86 42.796 257.344 131.254 0 0-221.224 98.164-227.25 101.814-104.682 78.654 2.408 187.742 76.61 143.27 90.03-60.22 195.1-140.724 208.312-145.714-11.59 148.63-34.866 244.846-16.354 269.014 36.73 63.428 131.834 51.44 146.094-23.448 2.168-12.5-23.69-248.114-23.276-248.562 90.402 63.934 208.234 158.784 233.894 158.42 52.704 10.52 124.63-54.48 81.568-124.85-14.99-24.68-26.694-28.296-258.684-129.118 0 0 233.068-105.464 247.494-118.79 54.472-47.328 12.03-166.292-92.31-130.186-6.234 3.236-211.962 151.5-211.962 151.5s36.856-246.606 16.148-272.218c-38.748-67.014-134.398-46.876-145.578 24.792l23.036 245.532-211.55-149.78c-71.034-27.142-147.756 39.19-103.536 117.07z" fill="#ffffff" p-id="28150"></path></svg>