<?xml version="1.0" standalone="no"?><!DOCTYPE svg PUBLIC "-//W3C//DTD SVG 1.1//EN" "http://www.w3.org/Graphics/SVG/1.1/DTD/svg11.dtd"><svg t="1694340532428" class="icon" viewBox="0 0 1024 1024" version="1.1" xmlns="http://www.w3.org/2000/svg" p-id="1472" xmlns:xlink="http://www.w3.org/1999/xlink" width="200" height="200"><path d="M769.536 161.28c15.872 14.848 28.16 26.624 37.888 35.84 9.216 9.728 16.384 17.92 21.504 24.576 5.12 6.656 8.192 12.8 9.216 16.896 1.024 5.12 1.536 8.704 1.536 11.776v14.336h-129.536c-6.144 0-10.752-2.048-15.36-6.656-4.608-4.608-8.192-9.216-10.752-15.36s-5.12-11.776-6.656-17.92c-1.536-6.144-2.048-10.752-2.048-14.336v-107.52h2.56c5.12 0 9.216 0.512 14.336 2.048 5.12 1.536 10.24 4.608 16.896 8.192 6.656 3.584 14.336 9.728 24.064 17.408 9.728 7.68 21.504 17.92 36.352 30.72z m-148.992 50.688c0 11.264 1.536 23.552 5.632 35.84 3.072 12.8 9.216 24.064 16.384 34.816 7.68 10.752 16.896 19.456 29.184 26.624 11.264 7.168 25.088 10.24 40.96 10.24h127.488v492.544c0 16.896-3.072 32.256-9.728 45.568-6.656 13.824-15.872 24.576-26.624 33.792-10.752 9.216-23.552 16.384-36.352 22.016-13.824 5.632-26.624 7.68-39.424 7.68H296.96c-10.752 0-23.04-3.072-35.84-9.728-13.312-6.656-25.088-14.848-36.352-25.088-11.264-10.24-20.992-22.528-28.16-35.84-7.68-13.824-11.264-27.136-11.264-41.984v-593.92c0-11.776 2.56-25.088 8.192-38.4 5.632-13.312 13.312-25.088 23.04-35.84 9.728-10.752 20.992-19.968 32.768-27.136 11.776-7.168 25.088-10.752 38.4-10.752h333.824v109.568z m54.272 545.28c15.36 0 27.648-5.632 38.4-16.384 10.24-10.752 15.872-23.552 15.872-38.912s-5.632-27.648-15.872-38.4c-10.24-10.24-23.552-15.872-38.4-15.872h-327.68c-15.36 0-27.648 5.632-38.4 15.872s-15.872 23.552-15.872 38.4 5.632 27.648 15.872 38.912c10.24 10.752 23.552 16.384 38.4 16.384h327.68z m54.272-272.896c0-15.36-5.632-27.648-15.872-38.912-10.24-10.752-23.552-16.384-38.4-16.384h-327.68c-15.36 0-27.648 5.632-38.4 16.384-10.24 10.752-15.872 23.552-15.872 38.912s5.632 27.648 15.872 38.4c10.24 10.24 23.552 15.872 38.4 15.872h327.68c15.36 0 27.648-5.632 38.4-15.872 10.752-10.24 15.872-23.04 15.872-38.4z" fill="#ffffff" p-id="1473"></path></svg>