<?xml version="1.0" standalone="no"?><!DOCTYPE svg PUBLIC "-//W3C//DTD SVG 1.1//EN" "http://www.w3.org/Graphics/SVG/1.1/DTD/svg11.dtd"><svg t="1704791972510" class="icon" viewBox="0 0 1024 1024" version="1.1" xmlns="http://www.w3.org/2000/svg" p-id="61649" xmlns:xlink="http://www.w3.org/1999/xlink" width="200" height="200"><path d="M165.546667 140.117333C228.906667 118.997333 313.642667 106.666667 405.333333 106.666667s176.426667 12.330667 239.786667 33.450666c31.402667 10.453333 59.946667 23.893333 81.493333 40.832 21.034667 16.64 41.386667 41.642667 41.386667 75.050667v152.874667a256.085333 256.085333 0 1 1-152.362667 483.84c-59.008 15.658667-132.096 24.618667-210.304 24.618666-91.690667 0-176.426667-12.330667-239.786666-33.450666-31.402667-10.453333-59.946667-23.893333-81.493334-40.832C63.018667 826.410667 42.666667 801.408 42.666667 768V256c0-33.408 20.352-58.453333 41.386666-75.050667 21.546667-16.938667 50.090667-30.378667 81.493334-40.832zM128 527.872v68.266667c0.597333 1.194667 2.688 4.266667 8.874667 9.216 10.88 8.533333 29.226667 18.090667 55.68 26.922666 52.48 17.493333 127.744 29.056 212.778666 29.056 22.016 0 43.434667-0.768 64-2.218666 0.256-30.293333 5.802667-59.392 15.744-86.314667-25.642667 2.133333-52.352 3.2-79.744 3.2-91.690667 0-176.426667-12.330667-239.786666-33.450667a366.677333 366.677333 0 0 1-37.546667-14.677333z m417.28-48.512A255.488 255.488 0 0 1 682.666667 408.874667V357.205333a367.530667 367.530667 0 0 1-37.546667 14.677334c-63.36 21.12-148.096 33.450667-239.786667 33.450666s-176.426667-12.330667-239.786666-33.450666A367.872 367.872 0 0 1 128 357.205333v68.266667c0.597333 1.194667 2.688 4.266667 8.874667 9.216 10.88 8.533333 29.226667 18.090667 55.68 26.922667 52.48 17.493333 127.744 29.056 212.778666 29.056 50.901333 0 98.517333-4.138667 139.946667-11.306667zM128 766.805333c0.597333 1.194667 2.688 4.266667 8.874667 9.216 10.88 8.533333 29.226667 18.090667 55.68 26.922667 52.48 17.493333 127.744 29.056 212.778666 29.056 43.818667 0 85.034667-3.072 121.941334-8.448a255.573333 255.573333 0 0 1-44.373334-79.914667c-25.002667 2.005333-50.944 3.029333-77.568 3.029334-91.690667 0-176.426667-12.330667-239.786666-33.450667a366.677333 366.677333 0 0 1-37.546667-14.677333v68.266666zM810.666667 618.666667a42.666667 42.666667 0 0 0-42.666667 42.666666 42.666667 42.666667 0 0 1-42.666667 42.666667 42.666667 42.666667 0 1 0 0 85.333333 128 128 0 0 0 128-128 42.666667 42.666667 0 0 0-42.666666-42.666666z m-128 42.666666a42.666667 42.666667 0 0 1 42.666666-42.666666 42.666667 42.666667 0 1 0 0-85.333334 128 128 0 0 0-128 128 42.666667 42.666667 0 1 0 85.333334 0z" fill="#ffffff" fill-opacity=".85" p-id="61650"></path></svg>