<?xml version="1.0" standalone="no"?><!DOCTYPE svg PUBLIC "-//W3C//DTD SVG 1.1//EN" "http://www.w3.org/Graphics/SVG/1.1/DTD/svg11.dtd"><svg t="1694894755904" class="icon" viewBox="0 0 1024 1024" version="1.1" xmlns="http://www.w3.org/2000/svg" p-id="20129" xmlns:xlink="http://www.w3.org/1999/xlink" width="200" height="200"><path d="M700.8 0l80 160 176 25.6-128 124.8 32 176-160-83.2-156.8 83.2 28.8-176-128-124.8 176-25.6z" fill="#ffffff" p-id="20130"></path><path d="M691.2 1014.4L259.2 579.2c-12.8-12.8-12.8-32 0-44.8l105.6-105.6 457.6 457.6c12.8 12.8 12.8 32 0 44.8l-83.2 83.2c-12.8 12.8-35.2 12.8-48 0z" fill="#ffffff" p-id="20131"></path><path d="M256 576l-169.6-169.6c-12.8-12.8-12.8-32 0-44.8l83.2-83.2c12.8-12.8 32-12.8 44.8 0L384 448l-128 128z" fill="#f09199" p-id="20132"></path></svg>