<svg id="HomeIcon" t="1662924075230" class="icon" viewBox="0 0 1024 1024" version="1.1" xmlns="http://www.w3.org/2000/svg" p-id="5173" style="/*position:absolute;left:30%;right:30%;margin: auto;*/height: 25px;margin-right:5%;">
<path d="M672 85.333333a96 96 0 0 1 95.786667 89.429334L768 181.333333v31.957334L842.666667 213.333333a96 96 0 0 1 95.786666 89.429334L938.666667 309.333333v405.333334a96 96 0 0 1-89.429334 95.786666L842.666667 810.666667H768v32a96 96 0 0 1-89.429333 95.786666L672 938.666667h-320a96 96 0 0 1-95.786667-89.429334L256 842.666667V810.666667H181.333333a96 96 0 0 1-95.786666-89.429334L85.333333 714.666667v-405.333334a96 96 0 0 1 89.429334-95.786666L181.333333 213.333333 256 213.290667V181.333333a96 96 0 0 1 89.429333-95.786666L352 85.333333h320z m0 64h-320a32 32 0 0 0-31.701333 27.648L320 181.333333v661.333334c0 16.213333 12.032 29.610667 27.648 31.701333l4.352 0.298667h320a32 32 0 0 0 31.701333-27.648l0.298667-4.352V181.333333a32 32 0 0 0-27.648-31.701333L672 149.333333zM256 277.290667L181.333333 277.333333a32 32 0 0 0-31.701333 27.648L149.333333 309.333333v405.333334c0 16.213333 12.032 29.610667 27.648 31.701333l4.352 0.298667H256V277.290667z m586.666667 0.042666L768 277.290667V746.666667h74.666667a32 32 0 0 0 31.701333-27.648l0.298667-4.352v-405.333334a32 32 0 0 0-32-32z" p-id="5174" fill="#ffffff"></path>
</svg>