<?xml version="1.0" standalone="no"?><!DOCTYPE svg PUBLIC "-//W3C//DTD SVG 1.1//EN" "http://www.w3.org/Graphics/SVG/1.1/DTD/svg11.dtd"><svg id="HomeIcon" t="1731589578616" class="icon" viewBox="0 0 1024 1024" version="1.1" xmlns="http://www.w3.org/2000/svg" p-id="1496" xmlns:xlink="http://www.w3.org/1999/xlink" style="/*position:absolute;left:30%;right:30%;margin: auto;*/height: 25px;margin-right:5%;"><path d="M768 842.666667a96 96 0 0 1-89.429333 95.786666L672 938.666667h-320a96 96 0 0 1-95.786667-89.429334L256 842.666667V181.333333a96 96 0 0 1 89.429333-95.786666L352 85.333333h320a96 96 0 0 1 95.786667 89.429334L768 181.333333v661.333334zM810.666667 213.333333h32a96 96 0 0 1 95.786666 89.429334L938.666667 309.333333v405.333334a96 96 0 0 1-89.429334 95.786666L842.666667 810.666667H810.666667V213.333333zM213.333333 810.666667h-32a96 96 0 0 1-95.786666-89.429334L85.333333 714.666667v-405.333334a96 96 0 0 1 89.429334-95.786666L181.333333 213.333333H213.333333v597.333334z" fill="#212121" p-id="1497"></path></svg>