<?xml version="1.0" standalone="no"?><!DOCTYPE svg PUBLIC "-//W3C//DTD SVG 1.1//EN" "http://www.w3.org/Graphics/SVG/1.1/DTD/svg11.dtd"><svg t="1732897268993" class="icon" viewBox="0 0 1024 1024" version="1.1" xmlns="http://www.w3.org/2000/svg" p-id="17415" xmlns:xlink="http://www.w3.org/1999/xlink" width="200" height="200"><path d="M908.16 153.92l-6.4-50.24-49.92 8.96a951.68 951.68 0 0 1-253.12 17.6 651.84 651.84 0 0 0-134.72 3.84 443.84 443.84 0 0 0-294.72 209.6C119.36 429.12 77.44 576 156.16 783.36A708.8 708.8 0 0 0 141.44 928h96a638.08 638.08 0 0 1 8-101.12h2.56a427.2 427.2 0 0 1 240.96-332.8h3.2l29.12 56.96-3.52 1.92A361.28 361.28 0 0 0 312.96 832h16c179.84 0 320-50.88 422.08-152.32C947.52 480 910.08 167.04 908.16 153.92z" p-id="17416" fill="#ffffff"></path></svg>