<?xml version="1.0" standalone="no"?><!DOCTYPE svg PUBLIC "-//W3C//DTD SVG 1.1//EN" "http://www.w3.org/Graphics/SVG/1.1/DTD/svg11.dtd"><svg t="1738241667608" class="icon" viewBox="0 0 1024 1024" version="1.1" xmlns="http://www.w3.org/2000/svg" p-id="9370" xmlns:xlink="http://www.w3.org/1999/xlink" width="200" height="200"><path d="M808.4 719.5c0 16.4-13.3 29.2-29.6 29.2l-531.8 0.4h-0.3c-9.3 0-18.2-4-23.8-11.5-5.7-7.6-7.4-17.2-4.5-26.3 2.1-6.9 54-170 166.8-170 35.3 0.8 62.5 9.1 88.7 17 33.1 9.9 65.3 18.5 101.6 12.7 18.9-3.1 26.8-22.1 40.1-64.8 17.6-56.3 44.3-141.5 161.8-141.5 16.2 0 29.4 13 29.6 29.3l1.4 117.5v208z m-503.9-415c32.8 0 59.3 26.5 59.3 59.3s-26.5 59.3-59.3 59.3c-32.7 0-59.3-26.5-59.3-59.3s26.6-59.3 59.3-59.3z m513.8-148.2H205.7C145.8 156.3 97 205.1 97 265v494c0 59.9 48.8 108.7 108.7 108.7h612.7c59.9 0 108.7-48.8 108.7-108.7V265c-0.1-59.9-48.9-108.7-108.8-108.7z" fill="#fff" p-id="9371"></path></svg>