<?xml version="1.0" standalone="no"?><!DOCTYPE svg PUBLIC "-//W3C//DTD SVG 1.1//EN" "http://www.w3.org/Graphics/SVG/1.1/DTD/svg11.dtd"><svg t="1739201522238" class="icon" viewBox="0 0 1024 1024" version="1.1" xmlns="http://www.w3.org/2000/svg" p-id="4184" xmlns:xlink="http://www.w3.org/1999/xlink" width="200" height="200"><path d="M298.666667 426.666667a42.666667 42.666667 0 0 1 42.666666 42.666666v85.333334a42.666667 42.666667 0 0 1-85.333333 0v-85.333334a42.666667 42.666667 0 0 1 42.666667-42.666666z m0 213.333333a42.666667 42.666667 0 0 1 42.666666 42.666667v29.525333a8.533333 8.533333 0 0 0 13.44 6.954667l285.952-200.149334a8.533333 8.533333 0 0 0 0-13.994666L354.773333 304.853333A8.533333 8.533333 0 0 0 341.333333 311.808V341.333333a42.666667 42.666667 0 1 1-85.333333 0V213.333333a42.666667 42.666667 0 0 1 42.752-42.666666 42.666667 42.666667 0 0 1 24.746667 8.106666L682.666667 430.208V213.333333a42.666667 42.666667 0 0 1 85.333333 0v597.333334a42.666667 42.666667 0 0 1-85.333333 0v-216.874667L323.456 845.226667c-7.253333 5.162667-15.914667 8.106667-24.789333 8.106666a42.666667 42.666667 0 0 1-42.666667-42.666666v-128a42.666667 42.666667 0 0 1 42.666667-42.666667z" fill="#ffffff" p-id="4185"></path></svg>