<?xml version="1.0" standalone="no"?><!DOCTYPE svg PUBLIC "-//W3C//DTD SVG 1.1//EN" "http://www.w3.org/Graphics/SVG/1.1/DTD/svg11.dtd"><svg t="1682142636403" class="icon" viewBox="0 0 1024 1024" version="1.1" xmlns="http://www.w3.org/2000/svg" p-id="1128" xmlns:xlink="http://www.w3.org/1999/xlink" width="200" height="200"><path d="M814.933333 290.133333c68.266667 0 123.733333 55.466667 123.733334 123.733334v384c0 68.266667-55.466667 123.733333-123.733334 123.733333H209.066667c-68.266667 0-123.733333-55.466667-123.733334-123.733333v-384c0-68.266667 55.466667-123.733333 123.733334-123.733334h98.133333L213.333333 234.666667c-12.8-8.533333-21.333333-17.066667-21.333333-29.866667-4.266667-12.8 0-25.6 4.266667-38.4 12.8-21.333333 42.666667-29.866667 68.266666-17.066667l230.4 140.8h64L712.533333 85.333333c17.066667-21.333333 46.933333-25.6 68.266667-8.533333 21.333333 17.066667 25.6 46.933333 12.8 68.266667L682.666667 294.4h132.266666z m-187.733333 345.6c21.333333-12.8 21.333333-42.666667 0-55.466666l-123.733333-89.6c-25.6-17.066667-55.466667 0-55.466667 29.866666v179.2c0 29.866667 34.133333 46.933333 55.466667 29.866667l123.733333-93.866667z" fill="#FF5D79" p-id="1129"></path></svg>