<?xml version="1.0" standalone="no"?><!DOCTYPE svg PUBLIC "-//W3C//DTD SVG 1.1//EN" "http://www.w3.org/Graphics/SVG/1.1/DTD/svg11.dtd"><svg t="1662999639399" class="icon" viewBox="0 0 1024 1024" version="1.1" xmlns="http://www.w3.org/2000/svg" p-id="7521" xmlns:xlink="http://www.w3.org/1999/xlink" width="200" height="200"><path d="M213.333333 426.666667h426.666667c23.466667 0 42.666667 19.2 42.666667 42.666666s-19.2 42.666667-42.666667 42.666667H213.333333c-23.466667 0-42.666667-19.2-42.666666-42.666667s19.2-42.666667 42.666666-42.666666z m0-170.666667h426.666667c23.466667 0 42.666667 19.2 42.666667 42.666667s-19.2 42.666667-42.666667 42.666666H213.333333c-23.466667 0-42.666667-19.2-42.666666-42.666666s19.2-42.666667 42.666666-42.666667z m0 341.333333h256c23.466667 0 42.666667 19.2 42.666667 42.666667s-19.2 42.666667-42.666667 42.666667H213.333333c-23.466667 0-42.666667-19.2-42.666666-42.666667s19.2-42.666667 42.666666-42.666667z m384 37.546667v180.48c0 16.64 17.92 26.88 32.426667 18.346667l150.613333-90.453334c13.653333-8.106667 13.653333-28.16 0-36.693333l-150.613333-90.453333a21.674667 21.674667 0 0 0-32.426667 18.773333z" p-id="7522" fill="#000000"></path></svg>