<?xml version="1.0" encoding="UTF-8"?>
<svg id="TorrentIcon" xmlns="http://www.w3.org/2000/svg" xmlns:xlink="http://www.w3.org/1999/xlink" viewBox="0 0 256 256" style="/*position:absolute;left:30%;right:30%;margin: auto;*/height: 25px;margin-right:5%;">
<g id="surface205006769">
<path style=" stroke:none;fill-rule:nonzero;fill:rgb(100%,100%,100%);fill-opacity:1;" d="M 128 24 C 70.65625 24 24 70.65625 24 128 C 24 185.34375 70.65625 232 128 232 C 185.34375 232 232 185.34375 232 128 C 232 70.65625 185.34375 24 128 24 Z M 128 40 C 176.695312 40 216 79.304688 216 128 C 216 176.695312 176.695312 216 128 216 C 79.304688 216 40 176.695312 40 128 C 40 79.304688 79.304688 40 128 40 Z M 136 64 L 136 168 L 144 168 L 147.734375 160.515625 C 153.28125 165.117188 160.289062 168 168 168 C 185.578125 168 200 153.578125 200 136 L 200 120 C 200 102.421875 185.578125 88 168 88 C 162.15625 88 156.734375 89.710938 152 92.484375 L 152 64 Z M 88 88 C 70.421875 88 56 102.421875 56 120 L 56 136 C 56 153.578125 70.421875 168 88 168 C 93.84375 168 99.265625 166.289062 104 163.515625 L 104 192 L 120 192 L 120 88 L 112 88 L 108.265625 95.484375 C 102.71875 90.882812 95.710938 88 88 88 Z M 88 104 C 96.933594 104 104 111.066406 104 120 L 104 136 C 104 144.933594 96.933594 152 88 152 C 79.066406 152 72 144.933594 72 136 L 72 120 C 72 111.066406 79.066406 104 88 104 Z M 168 104 C 176.933594 104 184 111.066406 184 120 L 184 136 C 184 144.933594 176.933594 152 168 152 C 159.066406 152 152 144.933594 152 136 L 152 120 C 152 111.066406 159.066406 104 168 104 Z M 168 104 "/>
</g>
</svg>
