<?xml version="1.0" standalone="no"?><!DOCTYPE svg PUBLIC "-//W3C//DTD SVG 1.1//EN" "http://www.w3.org/Graphics/SVG/1.1/DTD/svg11.dtd"><svg t="1704700920510" class="icon" viewBox="0 0 1024 1024" version="1.1" xmlns="http://www.w3.org/2000/svg" p-id="4473" xmlns:xlink="http://www.w3.org/1999/xlink" width="200" height="200"><path d="M917.333333 853.333333a42.666667 42.666667 0 1 1 0 85.333334H106.666667a42.666667 42.666667 0 1 1 0-85.333334h810.666666zM554.666667 85.333333a64 64 0 0 1 64 64v576a64 64 0 0 1-64 64h-64a64 64 0 0 1-64-64V149.333333a64 64 0 0 1 64-64h64z m-298.666667 128a64 64 0 0 1 64 64v448a64 64 0 0 1-64 64H192a64 64 0 0 1-64-64V277.333333a64 64 0 0 1 64-64h64z m597.333333 128a64 64 0 0 1 64 64v320a64 64 0 0 1-64 64h-64a64 64 0 0 1-64-64V405.333333a64 64 0 0 1 64-64h64z" fill="#ffffff" p-id="4474"></path></svg>