<?xml version="1.0" standalone="no"?><!DOCTYPE svg PUBLIC "-//W3C//DTD SVG 1.1//EN" "http://www.w3.org/Graphics/SVG/1.1/DTD/svg11.dtd"><svg t="1691246521120" class="icon" viewBox="0 0 1124 1024" version="1.1" xmlns="http://www.w3.org/2000/svg" p-id="1511" xmlns:xlink="http://www.w3.org/1999/xlink" width="219.53125" height="200"><path d="M514.941447 890.533617c75.021176-0.60418 145.170347-21.660501 204.945616-58.36123l65.26431 98.08286a509.889473 509.889473 0 0 1-270.209926 77.026541C235.59169 1007.281788 9.306945 783.413764 9.306945 507.791926 9.306945 232.170089 235.59169 8.302065 514.941447 8.302065c279.966793 0 506.868572 223.868024 506.868572 499.489861 0 7.828632 0 15.040229-0.617035 22.868861l-118.933503-1.20836c0.60418-7.211597 0.60418-13.831869 0.60418-21.056321 0-211.231661-173.823912-382.150366-387.922214-382.150365-214.085448 0-387.318034 171.522885-387.318034 382.150365s173.232586 382.137511 387.318034 382.137511z m444.046693-194.378891L820.528049 514.219374h276.303147L958.975285 696.154726zM696.09265 529.452427c-4.884861 9.641172-14.654582 19.860815-24.411449 29.489133l-176.883377 101.707941c-34.15546 19.256635-78.671967 9.628318-98.198555-24.077221-4.884861-9.628318-9.756867-24.064366-10.965226-33.692684V394.051801c1.20836-38.51327 30.491815-72.822989 75.008321-72.822989 14.654582 0 24.398594 4.820586 34.15546 9.641173l176.883377 101.695086c34.168315 19.256635 44.529362 63.194672 24.398594 96.887356z" fill="#e6e6e6" p-id="1512"></path></svg>