<?xml version="1.0" standalone="no"?><!DOCTYPE svg PUBLIC "-//W3C//DTD SVG 1.1//EN" "http://www.w3.org/Graphics/SVG/1.1/DTD/svg11.dtd"><svg t="1724324978259" class="icon" viewBox="0 0 1024 1024" version="1.1" xmlns="http://www.w3.org/2000/svg" p-id="4396" xmlns:xlink="http://www.w3.org/1999/xlink" width="200" height="200"><path d="M716.8 290.133c-110.933-102.4-281.6-106.666-396.8-12.8S170.667 537.6 247.467 665.6C307.2 772.267 426.667 832 550.4 814.933s221.867-102.4 256-221.866c8.533-34.134 42.667-51.2 76.8-42.667 34.133 8.533 51.2 42.667 42.667 76.8-68.267 226.133-302.934 354.133-524.8 290.133-226.134-64-358.4-298.666-294.4-524.8 42.666-145.066 153.6-256 298.666-298.666s298.667 0 405.334 102.4l81.066-81.067c8.534-8.533 21.334-12.8 34.134-8.533 4.266 12.8 12.8 21.333 12.8 34.133v264.533c0 17.067-12.8 29.867-29.867 29.867H648.533c-12.8 0-25.6-8.533-29.866-17.067s0-25.6 8.533-34.133l89.6-93.867z" fill="#ffffff" p-id="4397"></path></svg>