<?xml version="1.0" standalone="no"?><!DOCTYPE svg PUBLIC "-//W3C//DTD SVG 1.1//EN" "http://www.w3.org/Graphics/SVG/1.1/DTD/svg11.dtd"><svg t="1704790341942" class="icon" viewBox="0 0 1024 1024" version="1.1" xmlns="http://www.w3.org/2000/svg" p-id="12022" xmlns:xlink="http://www.w3.org/1999/xlink" width="200" height="200"><path d="M830.72 346.24C785.28 213.12 660.48 116.48 512 116.48S238.72 213.12 193.28 346.24A288.192 288.192 0 0 0 0 618.24c0 158.08 127.36 286.72 285.44 288.64s453.76 0 453.76 0A289.28 289.28 0 0 0 1024 617.6c0-126.08-81.28-232.32-193.28-272z m-323.84 451.2c-43.52 0-84.48-14.08-118.4-39.04l-10.24 16c-5.12 8.32-17.28 7.68-22.4-0.64l-66.56-125.44c-4.48-8.96 1.92-19.2 11.52-18.56l141.44 5.12c9.6 0 15.36 11.52 10.24 19.84l-24.96 39.68c21.76 17.28 49.28 27.52 78.08 27.52 69.12 0 125.44-56.32 125.44-125.44h76.8c0 111.36-90.88 202.24-202.24 202.24z m215.68-236.8l-141.44-5.12c-9.6 0-15.36-11.52-10.24-19.84l20.48-32.64c-23.04-21.12-52.48-33.28-83.84-33.28-69.12 0-125.44 56.32-125.44 125.44h-76.8c0-111.36 90.88-202.24 202.24-202.24 45.44 0 89.6 16 124.8 44.16l13.44-21.76c5.12-8.32 17.28-7.68 22.4 0.64l66.56 125.44c4.48 8.96-1.92 19.2-11.52 18.56z" p-id="12023" fill="#ffffff"></path></svg>