<?xml version="1.0" standalone="no"?><!DOCTYPE svg PUBLIC "-//W3C//DTD SVG 1.1//EN" "http://www.w3.org/Graphics/SVG/1.1/DTD/svg11.dtd"><svg t="1704791172271" class="icon" viewBox="0 0 1024 1024" version="1.1" xmlns="http://www.w3.org/2000/svg" p-id="27752" xmlns:xlink="http://www.w3.org/1999/xlink" width="200" height="200"><path d="M93.090909 170.682182c0-47.104 38.167273-85.317818 85.317818-85.317818H349.090909a42.682182 42.682182 0 0 1 0 85.317818H178.408727v170.682182a42.682182 42.682182 0 1 1-85.317818 0V170.682182z m656.616727 571.112727a42.682182 42.682182 0 0 1-60.369454 0l-75.403637-75.403636a42.682182 42.682182 0 0 1 60.32291-60.369455l75.403636 75.403637a42.682182 42.682182 0 0 1 0 60.369454z m111.383273 196.887273c47.104 0 85.317818-38.167273 85.317818-85.317818v-170.682182a42.682182 42.682182 0 0 0-85.317818 0v170.682182h-170.682182a42.682182 42.682182 0 0 0 0 85.317818H861.090909zM93.090909 853.364364c0 47.104 38.167273 85.317818 85.317818 85.317818H349.090909a42.682182 42.682182 0 1 0 0-85.317818H178.408727v-170.682182a42.682182 42.682182 0 0 0-85.317818 0v170.682182z m768-768c47.104 0 85.317818 38.167273 85.317818 85.317818v170.682182a42.682182 42.682182 0 1 1-85.317818 0V170.682182h-170.682182a42.682182 42.682182 0 0 1 0-85.317818H861.090909z" p-id="27753" fill="#ffffff"></path><path d="M496.453818 698.181818a209.454545 209.454545 0 1 0 0-418.909091 209.454545 209.454545 0 0 0 0 418.909091z m0-93.090909a116.363636 116.363636 0 1 0 0-232.727273 116.363636 116.363636 0 0 0 0 232.727273z" p-id="27754" fill="#ffffff"></path></svg>