<?xml version="1.0" standalone="no"?><!DOCTYPE svg PUBLIC "-//W3C//DTD SVG 1.1//EN" "http://www.w3.org/Graphics/SVG/1.1/DTD/svg11.dtd"><svg t="1704793511133" class="icon" viewBox="0 0 1024 1024" version="1.1" xmlns="http://www.w3.org/2000/svg" p-id="76439" xmlns:xlink="http://www.w3.org/1999/xlink" width="200" height="200"><path d="M163.520717 426.496c0-235.52 190.976-426.496 426.496-426.496s426.496 190.976 426.496 426.496-190.976 426.496-426.496 426.496c-98.816 0-194.56-34.304-270.848-96.768-1.536 2.048-3.072 4.096-5.12 6.144l-241.664 241.664c-16.896 16.384-43.52 16.384-59.904-0.512-16.896-16.896-16.384-44.032 0-60.416L254.144717 701.44c2.048-2.048 4.096-3.584 6.144-5.12-60.416-72.704-96.768-166.912-96.768-269.824z m768 0c0-188.416-152.576-341.504-341.504-341.504-188.416 0-341.504 153.088-341.504 341.504S401.600717 768 590.016717 768c188.416 0 341.504-152.576 341.504-341.504z" fill="#ffffff" p-id="76440"></path></svg>