<svg id="SettingsIcon" t="1662924234642" class="icon" viewBox="0 0 1024 1024" version="1.1" xmlns="http://www.w3.org/2000/svg" p-id="12747" style="/*position:absolute;left:30%;right:30%;margin: auto;height: 50%;*/height: 25px;margin-right:5%;">
<path d="M298.666667 128h426.666666a170.666667 170.666667 0 1 1 0 341.333333H298.666667a170.666667 170.666667 0 1 1 0-341.333333z m0 256a85.333333 85.333333 0 1 0 0-170.666667 85.333333 85.333333 0 0 0 0 170.666667z" fill="#ffffff" p-id="12748"></path>
<path d="M298.666667 554.666667h426.666666a170.666667 170.666667 0 1 1 0 341.333333H298.666667a170.666667 170.666667 0 1 1 0-341.333333z m426.666666 256a85.333333 85.333333 0 1 0 0-170.666667 85.333333 85.333333 0 0 0 0 170.666667z" fill="#ffffff" opacity=".5" p-id="12749"></path>
</svg>