<svg t="1682171029405" class="icon" viewBox="0 0 1024 1024" version="1.1" xmlns="http://www.w3.org/2000/svg" p-id="2648" width="20" height="30"><path d="M742 658.3c-35.5 0-67.7 13.6-90.9 35.7L408.4 547.5c0.3-3.4 0.5-6.6 0.5-10.1 0-20-5.2-38.7-14.3-55.3l205.7-149.2c23.2 21.8 55.1 35.2 90.4 35.2 70.7 0 128.1-54.2 128.1-120.9 0-66.8-57.4-120.9-128.1-120.9-70.8 0-128.1 54.2-128.1 120.9 0 5.5 0.4 11.1 1.2 16.4L336.5 428.5c-16.8-7.7-35.8-12-55.8-12-70.8 0-128.2 54.2-128.2 120.9s57.4 120.9 128.2 120.9c35.5 0 67.7-13.6 90.9-35.7L614.3 769c-0.3 3.4-0.4 6.7-0.4 10.1 0 66.8 57.4 120.9 128.1 120.9 70.8 0 128.2-54.2 128.2-120.9S812.7 658.3 742 658.3z m0 0" fill="#ffffff" p-id="2649"></path></svg>