<?xml version="1.0" standalone="no"?><!DOCTYPE svg PUBLIC "-//W3C//DTD SVG 1.1//EN" "http://www.w3.org/Graphics/SVG/1.1/DTD/svg11.dtd"><svg t="1704704716379" class="icon" viewBox="0 0 1024 1024" version="1.1" xmlns="http://www.w3.org/2000/svg" p-id="6818" xmlns:xlink="http://www.w3.org/1999/xlink" width="200" height="200"><path d="M512 848c-123.712 0-224-100.288-224-224s100.288-224 224-224 224 100.288 224 224-100.288 224-224 224z m428.642-354.619c10.293 33.815-8.775 69.57-42.59 79.863-33.814 10.293-69.57-8.775-79.863-42.589C777.533 397.09 653.813 304 512 304c-141.816 0-265.537 93.094-306.191 226.662-10.292 33.814-46.048 52.883-79.863 42.59-33.814-10.291-52.883-46.047-42.59-79.861C140.302 306.29 313.46 176 512 176c198.537 0 371.691 130.287 428.642 317.381z" fill="#ffffff" p-id="6819"></path></svg>