<?xml version="1.0" standalone="no"?><!DOCTYPE svg PUBLIC "-//W3C//DTD SVG 1.1//EN" "http://www.w3.org/Graphics/SVG/1.1/DTD/svg11.dtd"><svg t="1738862137017" class="icon" viewBox="0 0 1024 1024" version="1.1" xmlns="http://www.w3.org/2000/svg" p-id="41257" xmlns:xlink="http://www.w3.org/1999/xlink" width="200" height="200"><path d="M144 106.688l-6.592 0.448a48 48 0 0 0-35.84 70.016l138.496 261.44v340.864a48 48 0 0 0 30.08 44.608l224 89.728 6.4 2.048a48 48 0 0 0 59.52-46.592V438.4l138.368-261.312a48 48 0 0 0-42.368-70.464h-512z m432.384 95.936l-106.752 201.6-3.072 7.168a48 48 0 0 0-2.56 15.296v371.584l-128-51.264V426.688l-0.64-7.744a48 48 0 0 0-4.928-14.72l-106.752-201.6h352.64zM672 650.688a48 48 0 0 1 48-48h160a48 48 0 1 1 0 96h-160a48 48 0 0 1-48-48zM720 794.688a48 48 0 0 0 0 96h160a48 48 0 1 0 0-96h-160z" fill="#ffffff" p-id="41258"></path></svg>