<?xml version="1.0" standalone="no"?><!DOCTYPE svg PUBLIC "-//W3C//DTD SVG 1.1//EN" "http://www.w3.org/Graphics/SVG/1.1/DTD/svg11.dtd"><svg t="1738862168633" class="icon" viewBox="0 0 1152 1024" version="1.1" xmlns="http://www.w3.org/2000/svg" p-id="45020" xmlns:xlink="http://www.w3.org/1999/xlink" width="225" height="200"><path d="M367.2 84.8C355 71.6 338 64 320 64s-35 7.6-47.2 20.8l-176 192c-23.8 26-22.2 66.6 4 90.4s66.6 22.2 90.4-4l64.8-70.6V896c0 35.4 28.6 64 64 64s64-28.6 64-64V292.6l64.8 70.8c23.8 26 64.4 27.8 90.4 4s27.8-64.4 4-90.4l-176-192zM640 128c0 35.4 28.6 64 64 64h101.4l-146.8 146.8c-18.4 18.4-23.8 45.8-13.8 69.8s33.2 39.6 59.2 39.6h256c35.4 0 64-28.6 64-64s-28.6-64-64-64h-101.4l146.8-146.8c18.4-18.4 23.8-45.8 13.8-69.8S986 64 960 64H704c-35.4 0-64 28.6-64 64z m192 384c-24.2 0-46.4 13.6-57.2 35.4l-128 256-32 64c-15.8 31.6-3 70 28.6 85.8s70 3 85.8-28.6l14.4-28.6h176.8l14.4 28.6c15.8 31.6 54.2 44.4 85.8 28.6s44.4-54.2 28.6-85.8l-32-64-128-256c-10.8-21.8-33-35.4-57.2-35.4z m-40.4 288l40.4-80.8 40.4 80.8h-80.8z" p-id="45021" fill="#ffffff"></path></svg>