<?xml version="1.0" standalone="no"?><!DOCTYPE svg PUBLIC "-//W3C//DTD SVG 1.1//EN" "http://www.w3.org/Graphics/SVG/1.1/DTD/svg11.dtd"><svg t="1738862172043" class="icon" viewBox="0 0 1152 1024" version="1.1" xmlns="http://www.w3.org/2000/svg" p-id="45226" xmlns:xlink="http://www.w3.org/1999/xlink" width="225" height="200"><path d="M367.2 939.2C355 952.4 338 960 320 960s-35-7.6-47.2-20.8l-176-192c-23.8-26-22.2-66.6 4-90.4s66.6-22.2 90.4 4l64.8 70.6V128c0-35.4 28.6-64 64-64s64 28.6 64 64v603.4l64.8-70.8c23.8-26 64.4-27.8 90.4-4s27.8 64.4 4 90.4l-176 192zM640 128c0-35.4 28.6-64 64-64h256c25.8 0 49.2 15.6 59.2 39.6s4.4 51.4-13.8 69.8L858.6 320H960c35.4 0 64 28.6 64 64s-28.6 64-64 64H704c-25.8 0-49.2-15.6-59.2-39.6s-4.4-51.4 13.8-69.8L805.4 192H704c-35.4 0-64-28.6-64-64z m192 384c24.2 0 46.4 13.6 57.2 35.4l128 256 32 64c15.8 31.6 3 70-28.6 85.8s-70 3-85.8-28.6l-14.4-28.6h-176.8l-14.4 28.6c-15.8 31.6-54.2 44.4-85.8 28.6s-44.4-54.2-28.6-85.8l32-64 128-256c10.8-21.6 33-35.4 57.2-35.4z m-40.4 288h80.8L832 719.2 791.6 800z" p-id="45227" fill="#ffffff"></path></svg>