<?xml version="1.0" standalone="no"?><!DOCTYPE svg PUBLIC "-//W3C//DTD SVG 1.1//EN" "http://www.w3.org/Graphics/SVG/1.1/DTD/svg11.dtd"><svg t="1738241895351" class="icon" viewBox="0 0 1024 1024" version="1.1" xmlns="http://www.w3.org/2000/svg" p-id="34818" xmlns:xlink="http://www.w3.org/1999/xlink" width="200" height="200"><path d="M512 35.285333a388.394667 388.394667 0 1 0 336.853333 194.901334 35.328 35.328 0 1 0-61.226666 35.242666 317.781333 317.781333 0 1 1-116.394667-116.821333 35.328 35.328 0 1 0 35.413333-61.056A386.773333 386.773333 0 0 0 512 35.285333z" fill="#fff" fill-opacity=".85" p-id="34819"></path><path d="M677.333333 258.389333a35.328 35.328 0 0 0-37.376-8.106666l-0.469333 0.213333-1.408 0.512-5.248 1.962667a2381.269333 2381.269333 0 0 0-77.568 31.232c-21.973333 9.301333-45.312 19.712-65.152 29.696a392.277333 392.277333 0 0 0-27.434667 15.018666c-7.637333 4.693333-16.042667 10.368-22.528 16.853334a105.941333 105.941333 0 1 0 149.76 149.802666c6.528-6.485333 12.245333-14.933333 16.896-22.528a392.96 392.96 0 0 0 14.976-27.434666 1148.586667 1148.586667 0 0 0 29.738667-65.194667A2321.237333 2321.237333 0 0 0 682.666667 302.933333l2.005333-5.248 0.512-1.408 0.213333-0.512a35.328 35.328 0 0 0-8.106666-37.333333z" fill="#fff" fill-opacity=".85" p-id="34820"></path></svg>