<?xml version="1.0" standalone="no"?><!DOCTYPE svg PUBLIC "-//W3C//DTD SVG 1.1//EN" "http://www.w3.org/Graphics/SVG/1.1/DTD/svg11.dtd"><svg t="1704709710965" class="icon" viewBox="0 0 1024 1024" version="1.1" xmlns="http://www.w3.org/2000/svg" p-id="29103" xmlns:xlink="http://www.w3.org/1999/xlink" width="200" height="200"><path d="M884.48 495.616l19.008-61.12-19.072 61.12zM527.68 138.304l61.056-19.008-1.024-3.328-1.408-3.2-58.624 25.536z m356.672 388.8l19.072 61.12-19.072-61.12zM527.744 884.48l61.056 19.072-61.056-19.072z m-31.488 0l-61.056 19.008v0.128l61.056-19.136zM139.584 527.104l-19.072 61.12 19.072-61.12z m0-31.488l-19.072-61.12 19.072 61.12z m356.672-357.312l-58.624-25.6-1.408 3.2-1.024 3.392 61.056 19.008z m6.4-7.488l35.072 53.504-35.136-53.504z m18.752 0l-35.136 53.504 35.136-53.504z m435.712 89.088l19.072-61.12-19.072 61.12zM867.84 130.56l61.12-19.008-1.024-3.328-1.408-3.2-58.688 25.6z m91.328 90.88l-51.584 37.824 51.584-37.888z m0 4.864l-51.584-37.888 51.584 37.888z m-2.112 1.472l19.008 61.12-19.008-61.12zM867.84 317.12l61.12 19.072v-0.064l-61.12-19.008z m-6.4 2.048l-37.888 51.584 37.952-51.584z m-1.408-2.048l-61.12 19.008v0.064l61.12-19.072z m-89.216-89.344l-19.072 61.12 19.072-61.12z m-2.112-1.472l51.584-37.888-51.584 37.888z m0-4.928l51.584 37.888-51.584-37.888z m2.112-1.472l-19.008-61.12 19.008 61.12zM860.16 130.56l-58.688-25.6-1.408 3.264-1.024 3.328 61.12 19.008z m1.536-1.856l-35.072-53.504 35.072 53.504z m4.736 0l35.072-53.504-35.072 53.504z m37.12 305.792c-113.216-35.264-171.328-63.616-211.2-103.552-39.872-39.936-68.224-98.24-103.488-211.648l-122.24 38.016c36.032 115.776 71.68 200.448 135.168 264.064 63.488 63.616 148.032 99.264 263.68 135.36l38.08-122.24z m40.896 29.184a80.512 80.512 0 0 0-40.896-29.184l-38.144 122.24a47.552 47.552 0 0 1-24.128-17.28l103.168-75.776zM960 511.36c0-17.152-5.44-33.856-15.616-47.68L841.216 539.52A47.488 47.488 0 0 1 832 511.36h128z m-15.616 47.68c10.176-13.824 15.616-30.528 15.616-47.68h-128c0-10.112 3.2-19.968 9.216-28.16l103.168 75.84z m-40.896 29.184c16.384-5.12 30.72-15.36 40.896-29.184l-103.168-75.776a47.552 47.552 0 0 1 24.128-17.28l38.144 122.24zM588.8 903.424c35.264-113.408 63.616-171.712 103.488-211.648 39.872-39.872 97.984-68.288 211.2-103.552l-38.144-122.24c-115.584 36.096-200.128 71.744-263.68 135.36-63.424 63.616-99.072 148.288-135.04 264.064l122.24 38.016z m-29.12 40.96c13.824-10.24 24-24.512 29.12-40.896l-122.176-38.144a47.488 47.488 0 0 1 17.216-24.064l75.84 103.04zM512 960c17.152 0 33.92-5.504 47.68-15.68l-75.84-103.04A47.552 47.552 0 0 1 512 832v128z m-47.68-15.68c13.824 10.24 30.528 15.68 47.68 15.68v-128c10.176 0 20.032 3.2 28.16 9.28l-75.84 103.04z m-29.12-40.832c5.12 16.384 15.296 30.72 29.12 40.832l75.84-103.04a47.488 47.488 0 0 1 17.216 24.064l-122.176 38.144zM120.512 588.224c113.216 35.264 171.328 63.616 211.2 103.552 39.872 39.936 68.224 98.24 103.488 211.648l122.24-38.016c-36.032-115.776-71.68-200.448-135.168-264.064-63.488-63.616-148.032-99.264-263.68-135.296L120.512 588.16z m-40.896-29.184c10.176 13.824 24.512 24.064 40.896 29.184l38.144-122.24a47.552 47.552 0 0 1 24.128 17.28L79.616 559.04zM64 511.36c0 17.152 5.44 33.856 15.616 47.68l103.168-75.776A47.488 47.488 0 0 1 192 511.36H64z m15.616-47.68A80.512 80.512 0 0 0 64 511.36h128c0 10.112-3.2 19.968-9.216 28.16L79.616 463.616z m40.896-29.184c-16.384 5.12-30.72 15.36-40.896 29.184L182.784 539.52a47.552 47.552 0 0 1-24.128 17.28l-38.144-122.24zM435.2 119.296c-35.264 113.408-63.616 171.712-103.488 211.648-39.872 39.936-97.984 68.288-211.2 103.552L158.72 556.8c115.584-36.096 200.128-71.744 263.68-135.36 63.424-63.616 99.072-148.288 135.04-264.064L435.2 119.296z m32.32-41.984a81.152 81.152 0 0 0-29.888 35.456l117.312 51.072a46.848 46.848 0 0 1-17.28 20.48L467.584 77.312zM512 64c-15.808 0-31.296 4.608-44.48 13.312L537.728 184.32A46.848 46.848 0 0 1 512 192V64z m44.48 13.312A81.152 81.152 0 0 0 512 64v128a46.848 46.848 0 0 1-25.728-7.68l70.208-107.008z m29.888 35.456a81.152 81.152 0 0 0-29.888-35.456L486.272 184.32a46.848 46.848 0 0 1-17.28-20.48l117.376-51.072z m389.76 46.08c-27.392-8.576-32-12.928-33.088-14.08-1.088-1.088-5.44-5.76-14.016-33.216l-122.24 38.016c9.28 29.824 20.928 60.928 45.696 85.696 24.704 24.768 55.744 36.48 85.568 45.76l38.08-122.24z m34.624 24.64a68.16 68.16 0 0 0-34.56-24.704l-38.144 122.24a59.904 59.904 0 0 1-30.4-21.76l103.104-75.776z m13.248 40.32c0-14.464-4.608-28.608-13.248-40.32l-103.104 75.776A59.84 59.84 0 0 1 896 223.872h128z m-13.248 40.32c8.64-11.648 13.248-25.792 13.248-40.32h-128c0-12.736 4.032-25.152 11.648-35.392l103.104 75.776z m-34.56 24.768c13.888-4.352 25.984-12.992 34.56-24.704l-103.104-75.776a59.904 59.904 0 0 1 30.4-21.76l38.144 122.24z m-47.168 47.232c8.576-27.52 12.928-32.128 14.08-33.28 1.024-1.088 5.632-5.44 33.024-13.952l-38.08-122.24c-29.76 9.344-60.8 20.992-85.568 45.76-24.768 24.768-36.416 55.872-45.632 85.696l122.24 38.016z m-24.64 34.56c11.712-8.576 20.288-20.672 24.64-34.496l-122.24-38.144a59.84 59.84 0 0 1 21.76-30.4l75.84 103.04zM864 384c14.528 0 28.672-4.672 40.32-13.248l-75.84-103.04A59.904 59.904 0 0 1 864 256v128z m-40.32-13.248c11.648 8.576 25.792 13.248 40.32 13.248V256c12.8 0 25.216 4.096 35.52 11.648l-75.904 103.04z m-24.704-34.56c4.352 13.824 12.928 25.92 24.64 34.56l75.904-103.04c10.24 7.488 17.856 18.176 21.632 30.336l-122.176 38.144z m-47.104-47.36c27.392 8.576 32 12.928 33.088 14.08 1.088 1.088 5.44 5.76 14.016 33.216l122.24-38.016c-9.28-29.824-20.928-60.928-45.696-85.696-24.704-24.768-55.808-36.48-85.568-45.76l-38.08 122.24z m-34.624-24.64c8.576 11.712 20.672 20.352 34.56 24.704l38.144-122.24c12.16 3.84 22.848 11.456 30.4 21.76l-103.104 75.776zM704 223.872c0 14.464 4.608 28.608 13.248 40.32l103.104-75.776c7.616 10.24 11.648 22.656 11.648 35.456h-128z m13.248-40.32a68.096 68.096 0 0 0-13.248 40.32h128c0 12.736-4.032 25.152-11.648 35.392l-103.104-75.776z m34.56-24.768a68.16 68.16 0 0 0-34.56 24.704l103.104 75.776a59.904 59.904 0 0 1-30.4 21.76l-38.144-122.24z m47.168-47.232c-8.576 27.52-12.928 32.128-14.016 33.28-1.088 1.088-5.76 5.44-33.152 13.952l38.144 122.24c29.824-9.344 60.8-20.992 85.568-45.76 24.768-24.768 36.416-55.872 45.632-85.696l-122.24-38.016z m27.52-36.352c-11.072 7.296-19.84 17.664-25.088 29.824l117.312 51.136a59.712 59.712 0 0 1-21.952 26.048l-70.208-107.008zM864 64c-13.312 0-26.304 3.84-37.44 11.2l70.208 107.008A59.712 59.712 0 0 1 864 192V64z m37.44 11.2A68.288 68.288 0 0 0 864 64v128a59.712 59.712 0 0 1-32.768-9.792l70.208-107.008z m25.152 29.824a68.352 68.352 0 0 0-25.152-29.824l-70.208 107.008a59.712 59.712 0 0 1-21.952-26.048l117.312-51.2z" p-id="29104" fill="#ffffff"></path></svg>