<?xml version="1.0" standalone="no"?><!DOCTYPE svg PUBLIC "-//W3C//DTD SVG 1.1//EN" "http://www.w3.org/Graphics/SVG/1.1/DTD/svg11.dtd"><svg t="1738860627377" class="icon" viewBox="0 0 1024 1024" version="1.1" xmlns="http://www.w3.org/2000/svg" p-id="40856" xmlns:xlink="http://www.w3.org/1999/xlink" width="200" height="200"><path d="M650.666667 554.666667c41.216 0 74.666667 33.450667 74.666666 74.666666v192A74.666667 74.666667 0 0 1 650.666667 896H160A74.666667 74.666667 0 0 1 85.333333 821.333333v-192c0-41.216 33.408-74.666667 74.666667-74.666666h490.666667zM896 635.690667v228.309333a32 32 0 0 1-63.744 4.352l-0.256-4.352v-227.754667a128.256 128.256 0 0 0 64-0.554666z m-245.333333-17.024H160a10.666667 10.666667 0 0 0-10.666667 10.666666v192c0 5.888 4.736 10.666667 10.666667 10.666667h490.666667a10.666667 10.666667 0 0 0 10.666666-10.666667v-192a10.666667 10.666667 0 0 0-10.666666-10.666666z m213.333333-188.074667a81.408 81.408 0 1 1 0 162.816 81.408 81.408 0 0 1 0-162.816zM650.410667 128c41.258667 0 74.666667 33.450667 74.666666 74.666667v192a74.666667 74.666667 0 0 1-74.666666 74.666666h-490.666667a74.666667 74.666667 0 0 1-74.666667-74.666666v-192a74.666667 74.666667 0 0 1 68.565334-74.410667L159.786667 128h490.666666z m0 64h-490.666667l-2.432 0.298667a10.666667 10.666667 0 0 0-8.234667 10.368v192c0 5.888 4.778667 10.666667 10.666667 10.666666h490.666667a10.666667 10.666667 0 0 0 10.666666-10.666666v-192a10.666667 10.666667 0 0 0-10.666666-10.666667zM864 128a32 32 0 0 1 31.701333 27.648L896 160v228.309333a128.170667 128.170667 0 0 0-64-0.554666V160a32 32 0 0 1 32-32z" fill="#ffffff" p-id="40857"></path></svg>