<?xml version="1.0" standalone="no"?><!DOCTYPE svg PUBLIC "-//W3C//DTD SVG 1.1//EN" "http://www.w3.org/Graphics/SVG/1.1/DTD/svg11.dtd"><svg t="1723725616633" class="icon" viewBox="0 0 1024 1024" version="1.1" xmlns="http://www.w3.org/2000/svg" p-id="9177" xmlns:xlink="http://www.w3.org/1999/xlink" width="200" height="200"><path d="M476.16 42.688H547.84c22.464 0 41.92 0 57.856 1.28 16.896 1.408 33.664 4.48 49.792 12.672a128 128 0 0 1 55.936 55.936c8.256 16.128 11.264 32.896 12.672 49.792 1.152 14.272 1.28 31.36 1.28 50.944H896a42.688 42.688 0 0 1 0 85.376h-42.688v436.928c0 34.368 0 62.72-1.92 85.76-1.92 24-6.144 46.08-16.64 66.752-16.384 32.128-42.496 58.24-74.624 74.624-20.672 10.56-42.752 14.72-66.752 16.64-23.04 1.92-51.392 1.92-85.76 1.92H416.384c-34.368 0-62.72 0-85.76-1.92-24-1.92-46.08-6.144-66.752-16.64a170.688 170.688 0 0 1-74.624-74.624c-10.56-20.672-14.72-42.752-16.64-66.752-1.92-23.04-1.92-51.392-1.92-85.76V298.688H128a42.688 42.688 0 0 1 0-85.376h170.688c0-19.584 0.128-36.672 1.28-50.944 1.408-16.896 4.48-33.664 12.672-49.792a128 128 0 0 1 55.936-55.936c16.128-8.256 32.896-11.264 49.792-12.672 16-1.28 35.392-1.28 57.856-1.28z m-220.16 256v435.2c0 36.48 0 61.376 1.6 80.576 1.536 18.688 4.288 28.288 7.68 34.944 8.192 16 21.248 29.12 37.312 37.312 6.656 3.392 16.256 6.144 34.944 7.68 19.2 1.536 44.032 1.6 80.64 1.6h187.712c36.48 0 61.376 0 80.576-1.6 18.688-1.536 28.288-4.288 34.944-7.68 16-8.192 29.12-21.248 37.312-37.312 3.392-6.656 6.144-16.256 7.68-34.944 1.536-19.2 1.6-44.032 1.6-80.64v-435.2H256z m384-85.376H384c0-19.84 0.128-33.408 1.024-44.032 0.96-11.52 2.56-15.872 3.648-17.984a42.688 42.688 0 0 1 18.624-18.624c2.112-1.088 6.4-2.688 17.984-3.648C437.44 128 453.248 128 477.888 128h68.224c24.64 0 40.512 0 52.608 1.024 11.52 0.96 15.872 2.56 17.984 3.648a42.688 42.688 0 0 1 18.624 18.624c1.088 2.112 2.688 6.4 3.648 17.984 0.896 10.624 1.024 24.192 1.024 44.032zM426.688 448c23.552 0 42.624 19.072 42.624 42.688V704A42.688 42.688 0 1 1 384 704V490.688C384 467.072 403.072 448 426.688 448z m170.624 0c23.552 0 42.688 19.072 42.688 42.688V704a42.688 42.688 0 0 1-85.312 0V490.688c0-23.616 19.072-42.688 42.624-42.688z" fill="#ffffff" p-id="9178"></path></svg>