<?xml version="1.0" standalone="no"?><!DOCTYPE svg PUBLIC "-//W3C//DTD SVG 1.1//EN" "http://www.w3.org/Graphics/SVG/1.1/DTD/svg11.dtd"><svg t="1738860420630" class="icon" viewBox="0 0 1024 1024" version="1.1" xmlns="http://www.w3.org/2000/svg" p-id="20605" xmlns:xlink="http://www.w3.org/1999/xlink" width="200" height="200"><path d="M420.266667 117.333333h-213.333334c-36.266667 0-64 27.733333-64 64v213.333334c0 36.266667 27.733333 64 64 64h213.333334c36.266667 0 64-27.733333 64-64v-213.333334c0-34.133333-27.733333-64-64-64z m-21.333334 256h-170.666666v-170.666666h170.666666v170.666666zM420.266667 544h-213.333334c-36.266667 0-64 27.733333-64 64v213.333333c0 36.266667 27.733333 64 64 64h213.333334c36.266667 0 64-27.733333 64-64v-213.333333c0-34.133333-27.733333-64-64-64z m-21.333334 256h-170.666666v-170.666667h170.666666v170.666667zM644.266667 245.333333h192c23.466667 0 42.666667-19.2 42.666666-42.666666s-19.2-42.666667-42.666666-42.666667h-192c-23.466667 0-42.666667 19.2-42.666667 42.666667s19.2 42.666667 42.666667 42.666666zM612.266667 416h256c23.466667 0 42.666667-19.2 42.666666-42.666667s-19.2-42.666667-42.666666-42.666666h-256c-23.466667 0-42.666667 19.2-42.666667 42.666666s19.2 42.666667 42.666667 42.666667zM836.266667 586.666667h-192c-23.466667 0-42.666667 19.2-42.666667 42.666666s19.2 42.666667 42.666667 42.666667h192c23.466667 0 42.666667-19.2 42.666666-42.666667s-17.066667-42.666667-42.666666-42.666666zM868.266667 757.333333h-256c-23.466667 0-42.666667 19.2-42.666667 42.666667s19.2 42.666667 42.666667 42.666667h256c23.466667 0 42.666667-19.2 42.666666-42.666667s-17.066667-42.666667-42.666666-42.666667z" p-id="20606" fill="#ffffff"></path></svg>